<svg xmlns="http://www.w3.org/2000/svg" version="1.1" xmlns:xlink="http://www.w3.org/1999/xlink" xmlns:svgjs="http://svgjs.com/svgjs" width="1440" height="560" preserveAspectRatio="none" viewBox="0 0 1440 560">
    <g fill="none">
        <rect width="1440" height="560" x="0" y="0" fill="#0e2a47"></rect>
        <path d="M693.435,412.533C731.954,415.365,771.915,400.928,791.884,367.868C812.438,333.84,808.74,290.329,787.574,256.678C767.699,225.08,730.761,211.825,693.435,211.346C655.086,210.854,612.985,220.324,595.015,254.205C577.733,286.79,597.759,323.7,617.231,355.025C635.238,383.992,659.419,410.032,693.435,412.533" fill="rgba(28, 83, 142, 0.4)" class="triangle-float1"></path>
        <path d="M1124.5141701380148 598.6125272278584L1286.9370052108352 618.5555437128796 1144.457186623036 436.1896921550381z" fill="rgba(28, 83, 142, 0.4)" class="triangle-float2"></path>
        <path d="M317.9091968977705 147.03903725828786L362.5670519168665 41.831723858936385 257.35973851751504-2.826131160159605 212.70188349841905 102.38118223919189z" fill="rgba(28, 83, 142, 0.4)" class="triangle-float3"></path>
        <path d="M1192.902,697.599C1248.659,695.068,1284.71,643.83,1309.824,593.986C1331.974,550.026,1337.623,499.733,1314.491,456.282C1289.876,410.046,1245.279,373.754,1192.902,374.358C1141.357,374.952,1102.338,414.675,1076.073,459.03C1049.161,504.478,1032.796,558.07,1056.026,605.506C1081.948,658.439,1134.024,700.272,1192.902,697.599" fill="rgba(28, 83, 142, 0.4)" class="triangle-float1"></path>
        <path d="M76.22992720178905 620.8662041526958L210.50880643599575 558.2509344373149 147.89353672061486 423.9720552031082 13.614657486408156 486.5873249184891z" fill="rgba(28, 83, 142, 0.4)" class="triangle-float1"></path>
        <path d="M477.627,149.046C512.043,148.402,537.426,120.695,554.287,90.685C570.725,61.428,580.277,25.905,562.966,-2.845C546.051,-30.937,510.408,-35.803,477.627,-36.632C442.75,-37.515,403.015,-36.909,384.464,-7.362C365.154,23.395,377.25,62.447,395.834,93.648C413.895,123.97,442.34,149.706,477.627,149.046" fill="rgba(28, 83, 142, 0.4)" class="triangle-float2"></path>
    </g>
    <defs>
        <!-- <mask id="SvgjsMask1002">
            <rect width="1440" height="560" fill="#ffffff"></rect>
        </mask> -->
        <style>
            @keyframes float1 {
                0%{transform: translate(0, 0)}
                50%{transform: translate(-10px, 0)}
                100%{transform: translate(0, 0)}
            }

            .triangle-float1 {
                animation: float1 5s infinite;
            }

            @keyframes float2 {
                0%{transform: translate(0, 0)}
                50%{transform: translate(-5px, -5px)}
                100%{transform: translate(0, 0)}
            }

            .triangle-float2 {
                animation: float2 4s infinite;
            }

            @keyframes float3 {
                0%{transform: translate(0, 0)}
                50%{transform: translate(0, -10px)}
                100%{transform: translate(0, 0)}
            }

            .triangle-float3 {
                animation: float3 6s infinite;
            }
        </style>
    </defs>
</svg>